<svg data-v-fde0c5aa="" xmlns="http://www.w3.org/2000/svg" viewBox="0 0 300 300" class="iconAbove"><!----><defs data-v-fde0c5aa=""><!----></defs><rect data-v-fde0c5aa="" fill="#FABB18" x="0" y="0" width="300px" height="300px" class="logo-background-square"></rect><defs data-v-fde0c5aa=""><!----></defs><g data-v-fde0c5aa="" id="d2b1e180-5628-4ae8-b52b-e91704261810" fill="#ffffff" transform="matrix(4.827323222393275,0,0,4.827323222393275,18.837695548992656,181.30223244728273)"><path d="M7.49 1.13L0.50 1.13C-0.15 1.13 0.55 2.58 1.20 2.58L3.18 2.58L3.18 9.63C3.18 10.19 4.94 10.19 4.94 9.63L4.94 2.58L7.49 2.58C8.04 2.58 8.04 1.13 7.49 1.13ZM14.08 8.48C13.97 8.53 13.87 8.54 13.78 8.54C13.51 8.54 13.37 8.33 13.37 7.76L13.37 6.03C13.37 4.05 12.28 3.37 10.57 3.37C9.16 3.37 8.33 3.65 7.74 4.14C7.28 4.51 7.38 5.56 7.85 5.26C8.43 4.93 9.20 4.69 10.07 4.69C11.24 4.69 11.73 5.08 11.73 6.24L11.73 6.31C11.30 6.09 10.65 5.95 9.76 5.95C8.26 5.95 7.29 6.76 7.29 8.01C7.29 9.25 8.20 10.05 9.60 10.05C10.68 10.05 11.44 9.66 11.90 9.24C12.12 9.81 12.54 10.02 13.03 10.02C13.37 10.02 13.73 9.93 14.08 9.79C14.69 9.53 14.69 8.26 14.08 8.48ZM10.05 8.75C9.24 8.75 8.95 8.37 8.95 7.97C8.95 7.55 9.27 7.15 10.14 7.15C10.95 7.15 11.48 7.29 11.73 7.48L11.73 8.04C11.48 8.34 10.92 8.75 10.05 8.75ZM17.00 5.29C17.00 4.84 17.67 4.58 18.54 4.58C19.25 4.58 20.09 4.76 20.83 5.15C21.25 5.39 21.21 4.07 20.80 3.88C20.12 3.54 19.26 3.37 18.42 3.37C16.84 3.37 15.36 3.98 15.36 5.33C15.36 6.80 16.90 7 18.12 7.20C18.93 7.32 19.60 7.43 19.60 7.92C19.60 8.46 18.89 8.75 17.98 8.75C17.25 8.75 16.41 8.57 15.68 8.18C15.23 7.97 15.30 9.35 15.69 9.55C16.38 9.87 17.28 10.05 18.14 10.05C19.73 10.05 21.24 9.42 21.24 7.95C21.24 6.34 19.68 6.16 18.45 5.98C17.65 5.87 17.00 5.75 17.00 5.29ZM28.29 8.50C27.45 8.79 27.03 8.16 26.63 7.50C26.45 7.20 26.26 6.89 26.05 6.65C27.01 5.80 27.83 4.90 28.70 3.81C29.12 3.28 27.30 3.26 26.87 3.81C25.93 4.96 25.27 5.60 24.23 6.43L24.23 0.63C24.23-0.03 22.60 0.67 22.60 1.33L22.60 9.63C22.60 10.19 24.23 10.19 24.23 9.63L24.23 8.12C24.50 7.92 24.74 7.74 24.99 7.55C25.24 7.84 25.47 8.19 25.70 8.54C26.29 9.48 26.91 10.39 28.34 9.90C28.92 9.69 28.85 8.29 28.29 8.50ZM42.74 8.57C42.62 8.62 42.50 8.64 42.42 8.64C42.14 8.64 42.01 8.44 42.01 8.05L42.01 7.50L42.01 1.44C42.01 0.88 40.52 0.94 40.39 1.26C39.69 2.86 38.81 4.44 37.62 5.96C36.40 4.44 35.56 2.86 34.85 1.26C34.72 0.94 33.22 0.88 33.22 1.44L33.22 9.63C33.22 10.19 34.86 10.19 34.86 9.63L34.86 4.54C35.74 6.12 36.75 7.57 37.28 7.94C37.48 8.05 37.76 8.05 37.94 7.94C38.49 7.57 39.49 6.10 40.38 4.52L40.38 7.27L40.38 8.29C40.38 9.66 40.95 10.11 41.69 10.11C42.01 10.11 42.39 10.01 42.74 9.87C43.34 9.60 43.32 8.29 42.74 8.57ZM44.90 2.31C45.46 2.31 45.85 1.92 45.85 1.29C45.85 0.70 45.46 0.29 44.90 0.29C44.31 0.29 43.93 0.70 43.93 1.29C43.93 1.92 44.31 2.31 44.90 2.31ZM46.05 8.51C46.00 8.53 45.96 8.54 45.92 8.54C45.78 8.54 45.71 8.43 45.71 8.25L45.71 3.56C45.71 2.90 44.06 3.58 44.06 4.26L44.06 8.65C44.06 9.63 44.53 10.04 45.16 10.04C45.44 10.04 45.75 9.97 46.05 9.83C46.63 9.53 46.63 8.26 46.05 8.51ZM54.04 9.58C53.28 8.48 52.49 7.42 51.59 6.37C52.32 5.53 53.10 4.70 53.98 3.84C54.57 3.26 52.70 3.21 52.07 3.84C51.56 4.34 51.10 4.82 50.67 5.31C50.22 4.82 49.76 4.34 49.27 3.84C48.62 3.21 46.75 3.26 47.33 3.84C48.22 4.70 49 5.53 49.73 6.37C48.83 7.43 48.05 8.48 47.28 9.58C46.87 10.18 48.65 10.21 49.08 9.58C49.59 8.86 50.11 8.16 50.67 7.48C51.21 8.16 51.73 8.86 52.23 9.58C52.67 10.21 54.45 10.18 54.04 9.58Z"></path></g><defs data-v-fde0c5aa=""><!----></defs><g data-v-fde0c5aa="" id="9f38c810-402d-4274-947f-5fde58203751" stroke="none" fill="#44317E" transform="matrix(1.2732148146772448,0,0,1.2732148146772448,105.43389282282828,66.34482927394349)"><path d="M24.6 71.4c-5.4-.2-8.1-.3-13.6-.7-.7 0-1.2-.6-1.3-1.3-1.1-19.7-1.1-39.5 0-59.2 0-.7.6-1.2 1.3-1.3 16.1-1.2 32.3-1.2 48.4 0 .7.1 1.2.6 1.3 1.3.6 10 .9 20.1.8 30.1 0 0 0 .8.5 1.5 1.5 1.5 2.3 2.2 3.8 3.7 1.4 1.3 1.2-.8 1.2-.8.2-12.7-.3-25.5-1.3-38.2-.1-1.3-1.2-2.5-2.4-2.6C44.1 2.4 25.6 2.4 6.4 4c-1.2.1-2.2 1.3-2.3 2.6C2.6 28.8 2.6 50.7 4 73c.1 1.3 1.2 2.5 2.4 2.6 9.1 1 13.6 1.3 22.7 1.5 0 0 2.6.1 1.1-1.5-1.3-1.3-1.9-2-3.2-3.3.1 0-.7-.8-2.4-.9z"></path><path d="M26.9 65.9c-.6-.6-.6-1.7 0-2.3 1.6-1.6 2.3-2.4 3.9-4 .6-.6 1.6-.6 2.2 0 2.6 2.6 3.9 3.9 6.4 6.5.6.6 1.6.6 2.2 0 0 0 14.8-15.9 18-18.1.7-.5 1.7-.6 2.3-.1 1.6 1.5 2.4 2.2 3.9 3.7.6.6.6 1.5-.1 2.2C58.3 61.1 51 68.5 43.9 76c-1.9 1.6-5.4 1.7-7 .1-3.9-4-5.9-6.1-10-10.2zM55 20.7c0 .7-.5 1.2-1.2 1.2-12.6-.4-25.3-.4-37.9 0-.7 0-1.2-.5-1.2-1.2 0-1 0-1.5.1-2.4 0-.7.6-1.2 1.3-1.3 12.5-.5 25.1-.5 37.6 0 .7 0 1.2.6 1.3 1.3v2.4zM55.2 32.2c0 .7-.5 1.2-1.2 1.2-12.8-.1-25.5-.1-38.3 0-.7 0-1.2-.5-1.2-1.2v-2.4c0-.7.6-1.2 1.2-1.2 12.7-.3 25.4-.3 38.2 0 .7 0 1.2.6 1.2 1.2.1 1 .1 1.5.1 2.4zM55.3 43.7c0 .7-.6 1.2-1.2 1.2-12.8.1-25.5.1-38.3 0-.7 0-1.2-.6-1.2-1.2v-2.4c0-.7.6-1.2 1.2-1.2h38.3c.7 0 1.2.5 1.2 1.2v2.4z"></path></g><!----></svg>