<svg data-v-fde0c5aa="" xmlns="http://www.w3.org/2000/svg" viewBox="0 0 300 300" class="iconAbove"><!----><defs data-v-fde0c5aa=""><!----></defs><rect data-v-fde0c5aa="" fill="#E30B20" x="0" y="0" width="300px" height="300px" class="logo-background-square"></rect><defs data-v-fde0c5aa=""><!----></defs><g data-v-fde0c5aa="" id="d47eaea5-52da-41e0-ac7c-487068d15374" fill="#ffffff" transform="matrix(4.651162663736833,0,0,4.651162663736833,19.674418577498432,169.62790819477476)"><path d="M0.07 6.57L0.07 3.74L0.28 3.56L1.58 3.74L6.97 3.74L8.27 3.56L8.48 3.74L8.48 6.57L8.20 6.57L7.35 4.48L4.97 4.39L4.97 13.05L6.23 13.54L6.23 13.82L2.52 13.82L2.52 13.54L3.71 13.05L3.71 4.39L1.24 4.50L0.35 6.57L0.07 6.57ZM14.50 12.87L15.76 13.22L15.76 13.47L14.28 13.93L14.28 13.93Q13.84 14.03 13.54 13.83L13.54 13.83L13.54 13.83Q13.24 13.64 13.24 13.17L13.24 13.17L13.24 13.17Q12.35 13.99 11.16 13.99L11.16 13.99L11.16 13.99Q10.17 13.99 9.67 13.48L9.67 13.48L9.67 13.48Q9.18 12.97 9.18 12.20L9.18 12.20L9.18 12.20Q9.18 11.61 9.44 11.17L9.44 11.17L9.44 11.17Q9.70 10.72 10.10 10.45L10.10 10.45L10.10 10.45Q10.51 10.19 11.07 10.01L11.07 10.01L11.07 10.01Q11.63 9.83 12.15 9.76L12.15 9.76L12.15 9.76Q12.67 9.69 13.24 9.68L13.24 9.68L13.24 9.02L13.24 9.02Q13.24 8.07 12.94 7.69L12.94 7.69L12.94 7.69Q12.64 7.31 11.94 7.31L11.94 7.31L11.94 7.31Q11.42 7.31 10.71 7.48L10.71 7.48L9.98 9.06L9.65 9.06L9.65 7.12L9.65 7.12Q10.26 6.90 10.94 6.77L10.94 6.77L10.94 6.77Q11.63 6.65 12.15 6.65L12.15 6.65L12.15 6.65Q13.28 6.65 13.89 7.11L13.89 7.11L13.89 7.11Q14.50 7.56 14.50 8.60L14.50 8.60L14.50 12.87ZM11.73 13.19L11.73 13.19L11.73 13.19Q12.12 13.19 12.53 13.01L12.53 13.01L12.53 13.01Q12.94 12.82 13.24 12.49L13.24 12.49L13.24 10.24L13.24 10.24Q11.87 10.30 11.16 10.80L11.16 10.80L11.16 10.80Q10.44 11.29 10.44 12.06L10.44 12.06L10.44 12.06Q10.44 12.65 10.81 12.92L10.81 12.92L10.81 12.92Q11.19 13.19 11.73 13.19ZM16.81 11.51L17.16 11.51L17.89 13.06L17.89 13.06Q17.98 13.12 18.11 13.16L18.11 13.16L18.11 13.16Q18.24 13.21 18.39 13.24L18.39 13.24L18.39 13.24Q18.54 13.28 18.70 13.30L18.70 13.30L18.70 13.30Q18.85 13.32 19.00 13.32L19.00 13.32L19.00 13.32Q19.35 13.32 19.64 13.24L19.64 13.24L19.64 13.24Q19.92 13.17 20.13 13.04L20.13 13.04L20.13 13.04Q20.33 12.91 20.44 12.71L20.44 12.71L20.44 12.71Q20.55 12.52 20.55 12.27L20.55 12.27L20.55 12.27Q20.55 11.95 20.29 11.66L20.29 11.66L20.29 11.66Q20.02 11.37 19.54 11.09L19.54 11.09L18.81 10.68L18.81 10.68Q18.42 10.48 18.08 10.26L18.08 10.26L18.08 10.26Q17.75 10.04 17.49 9.78L17.49 9.78L17.49 9.78Q17.24 9.52 17.09 9.21L17.09 9.21L17.09 9.21Q16.95 8.89 16.95 8.50L16.95 8.50L16.95 8.50Q16.95 8.03 17.13 7.68L17.13 7.68L17.13 7.68Q17.32 7.33 17.66 7.11L17.66 7.11L17.66 7.11Q18.00 6.88 18.48 6.76L18.48 6.76L18.48 6.76Q18.96 6.65 19.55 6.65L19.55 6.65L19.55 6.65Q20.45 6.65 21.36 6.95L21.36 6.95L21.33 8.92L21.05 8.92L20.32 7.31L20.32 7.31Q20.06 7.28 19.88 7.26L19.88 7.26L19.88 7.26Q19.69 7.24 19.56 7.24L19.56 7.24L19.56 7.24Q19.20 7.24 18.93 7.32L18.93 7.32L18.93 7.32Q18.66 7.41 18.48 7.55L18.48 7.55L18.48 7.55Q18.31 7.69 18.22 7.87L18.22 7.87L18.22 7.87Q18.14 8.05 18.14 8.24L18.14 8.24L18.14 8.24Q18.14 8.46 18.22 8.64L18.22 8.64L18.22 8.64Q18.31 8.83 18.47 8.99L18.47 8.99L18.47 8.99Q18.64 9.15 18.89 9.31L18.89 9.31L18.89 9.31Q19.15 9.47 19.48 9.65L19.48 9.65L19.48 9.65Q19.96 9.91 20.27 10.08L20.27 10.08L20.27 10.08Q20.58 10.24 20.72 10.34L20.72 10.34L20.72 10.34Q21.79 11.05 21.79 11.99L21.79 11.99L21.79 11.99Q21.79 12.50 21.55 12.88L21.55 12.88L21.55 12.88Q21.31 13.25 20.91 13.51L20.91 13.51L20.91 13.51Q20.52 13.77 20.03 13.89L20.03 13.89L20.03 13.89Q19.54 14.02 19.04 14.02L19.04 14.02L19.04 14.02Q18.78 14.02 18.48 13.99L18.48 13.99L18.48 13.99Q18.18 13.95 17.88 13.89L17.88 13.89L17.88 13.89Q17.58 13.83 17.30 13.74L17.30 13.74L17.30 13.74Q17.02 13.66 16.81 13.56L16.81 13.56L16.81 11.51ZM25.43 13.05L26.55 13.54L26.55 13.82L22.91 13.82L22.91 13.54L24.17 13.05L24.17 4.42L22.91 3.92L22.91 3.64L25.29 3.15L25.43 3.29L25.43 10.00L26.04 9.86L28.09 7.45L27.19 7.10L27.19 6.82L30.17 6.82L30.17 7.10L29.00 7.57L27.00 9.92L29.38 13.06L29.38 13.05L30.57 13.54L30.57 13.82L28.49 13.82L25.92 10.52L25.43 10.52L25.43 13.05ZM37.12 11.67L40.11 3.74L42.85 3.74L42.85 4.02L41.66 4.51L41.66 13.05L42.92 13.54L42.92 13.82L39.48 13.82L39.48 13.54L40.58 13.05L40.58 5.21L40.50 5.21L37.28 13.82L36.59 13.82L33.51 5.18L33.44 5.18L33.44 12.98L34.56 13.54L34.56 13.82L31.34 13.82L31.34 13.54L32.53 12.98L32.53 4.51L31.27 4.02L31.27 3.74L34.53 3.74L34.56 4.39L37.06 11.67L37.12 11.67ZM46.63 13.05L47.89 13.54L47.89 13.82L44.11 13.82L44.11 13.54L45.36 13.05L45.36 7.92L44.11 7.42L44.11 7.14L46.48 6.65L46.63 6.79L46.63 13.05ZM44.91 4.59L44.91 4.59L44.91 4.59Q44.91 4.24 45.15 3.99L45.15 3.99L45.15 3.99Q45.40 3.74 45.77 3.74L45.77 3.74L45.77 3.74Q46.13 3.74 46.38 3.99L46.38 3.99L46.38 3.99Q46.63 4.24 46.63 4.59L46.63 4.59L46.63 4.59Q46.63 4.96 46.38 5.21L46.38 5.21L46.38 5.21Q46.13 5.46 45.77 5.46L45.77 5.46L45.77 5.46Q45.40 5.46 45.15 5.21L45.15 5.21L45.15 5.21Q44.91 4.96 44.91 4.59ZM53.54 7.44L52.51 7.10L52.51 6.82L55.38 6.82L55.38 7.10L54.35 7.51L52.58 9.97L54.74 13.06L55.97 13.54L55.97 13.82L52.38 13.82L52.38 13.54L53.35 13.23L51.72 10.90L50.07 13.22L51.11 13.54L51.11 13.82L48.08 13.82L48.08 13.54L49.31 13.06L51.30 10.31L51.31 10.31L49.38 7.55L48.18 7.10L48.18 6.82L51.67 6.82L51.67 7.10L50.80 7.42L52.15 9.37L53.54 7.44Z"></path></g><defs data-v-fde0c5aa=""><!----></defs><g data-v-fde0c5aa="" id="743b38c9-8468-4a34-927c-1b2f56c4f676" stroke="none" fill="#ffffff" transform="matrix(7.136328567307658,0,0,7.136328567307658,89.75822167815309,65.16278691265437)"><path d="M10.216 14.068a.295.295 0 0 1-.444.001l-2.769-3.084a.35.35 0 0 1 .011-.479l.475-.476a.326.326 0 0 1 .464.004L9.758 11.9a.308.308 0 0 0 .454-.007l3.424-3.752a.335.335 0 0 1 .47-.022l.42.33c.458.458.494.506 0 1l-4.31 4.619zM7.5 2C7 2 7 3 7 3h1s0-1-.5-1z"></path><path d="M12 2h-2c-.086-1-1-2-2.5-2S5.086 1 5 2H3S2 2 2 3v10c0 1 1 1 1 1h5.628l-2.5-2.485c-.42-.461-.191-1.052.25-1.492l.75-.747c.217-.217.444-.248.75-.248.309 0 .785.279 1 .502l1.145 1.25L13 7.571V3c0-1-1-1-1-1zM4.5 8H4s-.5 0-.5-.5S4 7 4 7h.5s.5 0 .5.5-.5.5-.5.5zm0-2H4s-.5 0-.5-.5S4 5 4 5h.5s.5 0 .5.5-.5.5-.5.5zM11 8H6.5S6 8 6 7.5s.5-.5.5-.5H11s.5 0 .5.5-.5.5-.5.5zm0-2H6.5S6 6 6 5.5s.5-.5.5-.5H11s.5 0 .5.5-.5.5-.5.5zM3 4s0-1 1-1h2s0-1.938 1.5-1.938S9.027 3 9 3h2c1 0 1 1 1 1H3z"></path></g><!----></svg>